<?xml version="1.0" encoding="utf-8" standalone="no"?>
<!DOCTYPE svg PUBLIC "-//W3C//DTD SVG 1.1//EN"
  "http://www.w3.org/Graphics/SVG/1.1/DTD/svg11.dtd">
<svg xmlns:xlink="http://www.w3.org/1999/xlink" width="526.79952pt" height="209.99952pt" viewBox="0 0 526.79952 209.99952" xmlns="http://www.w3.org/2000/svg" version="1.1">
 <metadata>
  <rdf:RDF xmlns:dc="http://purl.org/dc/elements/1.1/" xmlns:cc="http://creativecommons.org/ns#" xmlns:rdf="http://www.w3.org/1999/02/22-rdf-syntax-ns#">
   <cc:Work>
    <dc:type rdf:resource="http://purl.org/dc/dcmitype/StillImage"/>
    <dc:format>image/svg+xml</dc:format>
    <dc:creator>
     <cc:Agent>
      <dc:title>Matplotlib v3.9.2, https://matplotlib.org/</dc:title>
     </cc:Agent>
    </dc:creator>
   </cc:Work>
  </rdf:RDF>
 </metadata>
 <defs>
  <style type="text/css">*{stroke-linejoin: round; stroke-linecap: butt}</style>
 </defs>
 <g id="figure_1">
  <g id="patch_1">
   <path d="M 0 209.99952 
L 526.79952 209.99952 
L 526.79952 -0 
L 0 -0 
z
" style="fill: #ffffff"/>
  </g>
  <g id="axes_1">
   <g id="patch_2">
    <path d="M 31.0325 176.31452 
L 260.39952 176.31452 
L 260.39952 22.49148 
L 31.0325 22.49148 
z
" style="fill: #ffffff"/>
   </g>
   <g id="matplotlib.axis_1">
    <g id="xtick_1">
     <g id="line2d_1">
      <path d="M 41.458274 176.31452 
L 41.458274 22.49148 
" clip-path="url(#pc677602d8b)" style="fill: none; stroke: #b0b0b0; stroke-opacity: 0.2; stroke-width: 0.8; stroke-linecap: square"/>
     </g>
     <g id="line2d_2">
      <defs>
       <path id="m0d92ce5eca" d="M 0 0 
L 0 3.5 
" style="stroke: #000000; stroke-width: 0.8"/>
      </defs>
      <g>
       <use xlink:href="#m0d92ce5eca" x="41.458274" y="176.31452" style="stroke: #000000; stroke-width: 0.8"/>
      </g>
     </g>
     <g id="text_1">
      <text style="font: 8px 'DejaVu Sans', 'Bitstream Vera Sans', 'Computer Modern Sans Serif', 'Lucida Grande', 'Verdana', 'Geneva', 'Lucid', 'Arial', 'Helvetica', 'Avant Garde', sans-serif; text-anchor: middle" x="41.458274" y="189.39327" transform="rotate(-0 41.458274 189.39327)">−5</text>
     </g>
    </g>
    <g id="xtick_2">
     <g id="line2d_3">
      <path d="M 83.161368 176.31452 
L 83.161368 22.49148 
" clip-path="url(#pc677602d8b)" style="fill: none; stroke: #b0b0b0; stroke-opacity: 0.2; stroke-width: 0.8; stroke-linecap: square"/>
     </g>
     <g id="line2d_4">
      <g>
       <use xlink:href="#m0d92ce5eca" x="83.161368" y="176.31452" style="stroke: #000000; stroke-width: 0.8"/>
      </g>
     </g>
     <g id="text_2">
      <text style="font: 8px 'DejaVu Sans', 'Bitstream Vera Sans', 'Computer Modern Sans Serif', 'Lucida Grande', 'Verdana', 'Geneva', 'Lucid', 'Arial', 'Helvetica', 'Avant Garde', sans-serif; text-anchor: middle" x="83.161368" y="189.39327" transform="rotate(-0 83.161368 189.39327)">0</text>
     </g>
    </g>
    <g id="xtick_3">
     <g id="line2d_5">
      <path d="M 124.864463 176.31452 
L 124.864463 22.49148 
" clip-path="url(#pc677602d8b)" style="fill: none; stroke: #b0b0b0; stroke-opacity: 0.2; stroke-width: 0.8; stroke-linecap: square"/>
     </g>
     <g id="line2d_6">
      <g>
       <use xlink:href="#m0d92ce5eca" x="124.864463" y="176.31452" style="stroke: #000000; stroke-width: 0.8"/>
      </g>
     </g>
     <g id="text_3">
      <text style="font: 8px 'DejaVu Sans', 'Bitstream Vera Sans', 'Computer Modern Sans Serif', 'Lucida Grande', 'Verdana', 'Geneva', 'Lucid', 'Arial', 'Helvetica', 'Avant Garde', sans-serif; text-anchor: middle" x="124.864463" y="189.39327" transform="rotate(-0 124.864463 189.39327)">5</text>
     </g>
    </g>
    <g id="xtick_4">
     <g id="line2d_7">
      <path d="M 166.567557 176.31452 
L 166.567557 22.49148 
" clip-path="url(#pc677602d8b)" style="fill: none; stroke: #b0b0b0; stroke-opacity: 0.2; stroke-width: 0.8; stroke-linecap: square"/>
     </g>
     <g id="line2d_8">
      <g>
       <use xlink:href="#m0d92ce5eca" x="166.567557" y="176.31452" style="stroke: #000000; stroke-width: 0.8"/>
      </g>
     </g>
     <g id="text_4">
      <text style="font: 8px 'DejaVu Sans', 'Bitstream Vera Sans', 'Computer Modern Sans Serif', 'Lucida Grande', 'Verdana', 'Geneva', 'Lucid', 'Arial', 'Helvetica', 'Avant Garde', sans-serif; text-anchor: middle" x="166.567557" y="189.39327" transform="rotate(-0 166.567557 189.39327)">10</text>
     </g>
    </g>
    <g id="xtick_5">
     <g id="line2d_9">
      <path d="M 208.270652 176.31452 
L 208.270652 22.49148 
" clip-path="url(#pc677602d8b)" style="fill: none; stroke: #b0b0b0; stroke-opacity: 0.2; stroke-width: 0.8; stroke-linecap: square"/>
     </g>
     <g id="line2d_10">
      <g>
       <use xlink:href="#m0d92ce5eca" x="208.270652" y="176.31452" style="stroke: #000000; stroke-width: 0.8"/>
      </g>
     </g>
     <g id="text_5">
      <text style="font: 8px 'DejaVu Sans', 'Bitstream Vera Sans', 'Computer Modern Sans Serif', 'Lucida Grande', 'Verdana', 'Geneva', 'Lucid', 'Arial', 'Helvetica', 'Avant Garde', sans-serif; text-anchor: middle" x="208.270652" y="189.39327" transform="rotate(-0 208.270652 189.39327)">15</text>
     </g>
    </g>
    <g id="xtick_6">
     <g id="line2d_11">
      <path d="M 249.973746 176.31452 
L 249.973746 22.49148 
" clip-path="url(#pc677602d8b)" style="fill: none; stroke: #b0b0b0; stroke-opacity: 0.2; stroke-width: 0.8; stroke-linecap: square"/>
     </g>
     <g id="line2d_12">
      <g>
       <use xlink:href="#m0d92ce5eca" x="249.973746" y="176.31452" style="stroke: #000000; stroke-width: 0.8"/>
      </g>
     </g>
     <g id="text_6">
      <text style="font: 8px 'DejaVu Sans', 'Bitstream Vera Sans', 'Computer Modern Sans Serif', 'Lucida Grande', 'Verdana', 'Geneva', 'Lucid', 'Arial', 'Helvetica', 'Avant Garde', sans-serif; text-anchor: middle" x="249.973746" y="189.39327" transform="rotate(-0 249.973746 189.39327)">20</text>
     </g>
    </g>
    <g id="text_7">
     <text style="font: 8px 'DejaVu Sans', 'Bitstream Vera Sans', 'Computer Modern Sans Serif', 'Lucida Grande', 'Verdana', 'Geneva', 'Lucid', 'Arial', 'Helvetica', 'Avant Garde', sans-serif; text-anchor: middle" x="145.71601" y="201.13577" transform="rotate(-0 145.71601 201.13577)">Battery-current sensing bias (A)</text>
    </g>
   </g>
   <g id="matplotlib.axis_2">
    <g id="ytick_1">
     <g id="line2d_13">
      <path d="M 31.0325 169.322564 
L 260.39952 169.322564 
" clip-path="url(#pc677602d8b)" style="fill: none; stroke: #b0b0b0; stroke-opacity: 0.2; stroke-width: 0.8; stroke-linecap: square"/>
     </g>
     <g id="line2d_14">
      <defs>
       <path id="m801810d50b" d="M 0 0 
L -3.5 0 
" style="stroke: #000000; stroke-width: 0.8"/>
      </defs>
      <g>
       <use xlink:href="#m801810d50b" x="31.0325" y="169.322564" style="stroke: #000000; stroke-width: 0.8"/>
      </g>
     </g>
     <g id="text_8">
      <text style="font: 8px 'DejaVu Sans', 'Bitstream Vera Sans', 'Computer Modern Sans Serif', 'Lucida Grande', 'Verdana', 'Geneva', 'Lucid', 'Arial', 'Helvetica', 'Avant Garde', sans-serif; text-anchor: end" x="24.0325" y="172.361939" transform="rotate(-0 24.0325 172.361939)">0</text>
     </g>
    </g>
    <g id="ytick_2">
     <g id="line2d_15">
      <path d="M 31.0325 137.129383 
L 260.39952 137.129383 
" clip-path="url(#pc677602d8b)" style="fill: none; stroke: #b0b0b0; stroke-opacity: 0.2; stroke-width: 0.8; stroke-linecap: square"/>
     </g>
     <g id="line2d_16">
      <g>
       <use xlink:href="#m801810d50b" x="31.0325" y="137.129383" style="stroke: #000000; stroke-width: 0.8"/>
      </g>
     </g>
     <g id="text_9">
      <text style="font: 8px 'DejaVu Sans', 'Bitstream Vera Sans', 'Computer Modern Sans Serif', 'Lucida Grande', 'Verdana', 'Geneva', 'Lucid', 'Arial', 'Helvetica', 'Avant Garde', sans-serif; text-anchor: end" x="24.0325" y="140.168758" transform="rotate(-0 24.0325 140.168758)">2</text>
     </g>
    </g>
    <g id="ytick_3">
     <g id="line2d_17">
      <path d="M 31.0325 104.936203 
L 260.39952 104.936203 
" clip-path="url(#pc677602d8b)" style="fill: none; stroke: #b0b0b0; stroke-opacity: 0.2; stroke-width: 0.8; stroke-linecap: square"/>
     </g>
     <g id="line2d_18">
      <g>
       <use xlink:href="#m801810d50b" x="31.0325" y="104.936203" style="stroke: #000000; stroke-width: 0.8"/>
      </g>
     </g>
     <g id="text_10">
      <text style="font: 8px 'DejaVu Sans', 'Bitstream Vera Sans', 'Computer Modern Sans Serif', 'Lucida Grande', 'Verdana', 'Geneva', 'Lucid', 'Arial', 'Helvetica', 'Avant Garde', sans-serif; text-anchor: end" x="24.0325" y="107.975578" transform="rotate(-0 24.0325 107.975578)">4</text>
     </g>
    </g>
    <g id="ytick_4">
     <g id="line2d_19">
      <path d="M 31.0325 72.743022 
L 260.39952 72.743022 
" clip-path="url(#pc677602d8b)" style="fill: none; stroke: #b0b0b0; stroke-opacity: 0.2; stroke-width: 0.8; stroke-linecap: square"/>
     </g>
     <g id="line2d_20">
      <g>
       <use xlink:href="#m801810d50b" x="31.0325" y="72.743022" style="stroke: #000000; stroke-width: 0.8"/>
      </g>
     </g>
     <g id="text_11">
      <text style="font: 8px 'DejaVu Sans', 'Bitstream Vera Sans', 'Computer Modern Sans Serif', 'Lucida Grande', 'Verdana', 'Geneva', 'Lucid', 'Arial', 'Helvetica', 'Avant Garde', sans-serif; text-anchor: end" x="24.0325" y="75.782397" transform="rotate(-0 24.0325 75.782397)">6</text>
     </g>
    </g>
    <g id="ytick_5">
     <g id="line2d_21">
      <path d="M 31.0325 40.549842 
L 260.39952 40.549842 
" clip-path="url(#pc677602d8b)" style="fill: none; stroke: #b0b0b0; stroke-opacity: 0.2; stroke-width: 0.8; stroke-linecap: square"/>
     </g>
     <g id="line2d_22">
      <g>
       <use xlink:href="#m801810d50b" x="31.0325" y="40.549842" style="stroke: #000000; stroke-width: 0.8"/>
      </g>
     </g>
     <g id="text_12">
      <text style="font: 8px 'DejaVu Sans', 'Bitstream Vera Sans', 'Computer Modern Sans Serif', 'Lucida Grande', 'Verdana', 'Geneva', 'Lucid', 'Arial', 'Helvetica', 'Avant Garde', sans-serif; text-anchor: end" x="24.0325" y="43.589217" transform="rotate(-0 24.0325 43.589217)">8</text>
     </g>
    </g>
    <g id="text_13">
     <text style="font: 8px 'DejaVu Sans', 'Bitstream Vera Sans', 'Computer Modern Sans Serif', 'Lucida Grande', 'Verdana', 'Geneva', 'Lucid', 'Arial', 'Helvetica', 'Avant Garde', sans-serif; text-anchor: middle" x="13.27875" y="99.403" transform="rotate(-90 13.27875 99.403)">Charging power (kW)</text>
    </g>
   </g>
   <g id="line2d_23">
    <path d="M 41.458274 29.483436 
L 76.036216 53.368664 
L 110.614159 76.977238 
L 145.192102 100.30916 
L 178.722228 122.669848 
L 212.252354 144.770396 
L 245.782481 166.610804 
L 249.973746 169.322564 
L 249.973746 169.322564 
" clip-path="url(#pc677602d8b)" style="fill: none; stroke: #000000; stroke-width: 0.8; stroke-linecap: square"/>
   </g>
   <g id="line2d_24">
    <defs>
     <path id="mb83f987c79" d="M 0 2 
C 0.530406 2 1.03916 1.789267 1.414214 1.414214 
C 1.789267 1.03916 2 0.530406 2 0 
C 2 -0.530406 1.789267 -1.03916 1.414214 -1.414214 
C 1.03916 -1.789267 0.530406 -2 0 -2 
C -0.530406 -2 -1.03916 -1.789267 -1.414214 -1.414214 
C -1.789267 -1.03916 -2 -0.530406 -2 0 
C -2 0.530406 -1.789267 1.03916 -1.414214 1.414214 
C -1.03916 1.789267 -0.530406 2 0 2 
z
" style="stroke: #737373"/>
    </defs>
    <g clip-path="url(#pc677602d8b)">
     <use xlink:href="#mb83f987c79" x="124.864463" y="86.626332" style="fill-opacity: 0; stroke: #737373"/>
    </g>
   </g>
   <g id="line2d_25">
    <g clip-path="url(#pc677602d8b)">
     <use xlink:href="#mb83f987c79" x="41.458274" y="29.483436" style="fill-opacity: 0; stroke: #737373"/>
    </g>
   </g>
   <g id="line2d_26">
    <defs>
     <path id="mc15140a1e7" d="M 0 2 
C 0.530406 2 1.03916 1.789267 1.414214 1.414214 
C 1.789267 1.03916 2 0.530406 2 0 
C 2 -0.530406 1.789267 -1.03916 1.414214 -1.414214 
C 1.03916 -1.789267 0.530406 -2 0 -2 
C -0.530406 -2 -1.03916 -1.789267 -1.414214 -1.414214 
C -1.789267 -1.03916 -2 -0.530406 -2 0 
C -2 0.530406 -1.789267 1.03916 -1.414214 1.414214 
C -1.03916 1.789267 -0.530406 2 0 2 
z
" style="stroke: #00a8d6"/>
    </defs>
    <g clip-path="url(#pc677602d8b)">
     <use xlink:href="#mc15140a1e7" x="124.864463" y="86.626332" style="fill-opacity: 0; stroke: #00a8d6"/>
    </g>
   </g>
   <g id="line2d_27">
    <g clip-path="url(#pc677602d8b)">
     <use xlink:href="#mc15140a1e7" x="41.458274" y="29.483436" style="fill-opacity: 0; stroke: #00a8d6"/>
    </g>
   </g>
   <g id="line2d_28">
    <defs>
     <path id="m9b78549a1e" d="M 0 2 
C 0.530406 2 1.03916 1.789267 1.414214 1.414214 
C 1.789267 1.03916 2 0.530406 2 0 
C 2 -0.530406 1.789267 -1.03916 1.414214 -1.414214 
C 1.03916 -1.789267 0.530406 -2 0 -2 
C -0.530406 -2 -1.03916 -1.789267 -1.414214 -1.414214 
C -1.789267 -1.03916 -2 -0.530406 -2 0 
C -2 0.530406 -1.789267 1.03916 -1.414214 1.414214 
C -1.03916 1.789267 -0.530406 2 0 2 
z
" style="stroke: #ab9ac0"/>
    </defs>
    <g clip-path="url(#pc677602d8b)">
     <use xlink:href="#m9b78549a1e" x="124.864463" y="86.626332" style="fill-opacity: 0; stroke: #ab9ac0"/>
    </g>
   </g>
   <g id="line2d_29">
    <g clip-path="url(#pc677602d8b)">
     <use xlink:href="#m9b78549a1e" x="41.458274" y="29.483436" style="fill-opacity: 0; stroke: #ab9ac0"/>
    </g>
   </g>
   <g id="line2d_30">
    <defs>
     <path id="m7f317ad738" d="M 0 2 
C 0.530406 2 1.03916 1.789267 1.414214 1.414214 
C 1.789267 1.03916 2 0.530406 2 0 
C 2 -0.530406 1.789267 -1.03916 1.414214 -1.414214 
C 1.03916 -1.789267 0.530406 -2 0 -2 
C -0.530406 -2 -1.03916 -1.789267 -1.414214 -1.414214 
C -1.789267 -1.03916 -2 -0.530406 -2 0 
C -2 0.530406 -1.789267 1.03916 -1.414214 1.414214 
C -1.03916 1.789267 -0.530406 2 0 2 
z
" style="stroke: #70a442"/>
    </defs>
    <g clip-path="url(#pc677602d8b)">
     <use xlink:href="#m7f317ad738" x="124.864463" y="86.626332" style="fill-opacity: 0; stroke: #70a442"/>
    </g>
   </g>
   <g id="line2d_31">
    <g clip-path="url(#pc677602d8b)">
     <use xlink:href="#m7f317ad738" x="41.458274" y="29.483436" style="fill-opacity: 0; stroke: #70a442"/>
    </g>
   </g>
   <g id="line2d_32">
    <defs>
     <path id="m08b30d5601" d="M 0 2 
C 0.530406 2 1.03916 1.789267 1.414214 1.414214 
C 1.789267 1.03916 2 0.530406 2 0 
C 2 -0.530406 1.789267 -1.03916 1.414214 -1.414214 
C 1.03916 -1.789267 0.530406 -2 0 -2 
C -0.530406 -2 -1.03916 -1.789267 -1.414214 -1.414214 
C -1.789267 -1.03916 -2 -0.530406 -2 0 
C -2 0.530406 -1.789267 1.03916 -1.414214 1.414214 
C -1.03916 1.789267 -0.530406 2 0 2 
z
" style="stroke: #8656a1"/>
    </defs>
    <g clip-path="url(#pc677602d8b)">
     <use xlink:href="#m08b30d5601" x="124.864463" y="86.626332" style="fill-opacity: 0; stroke: #8656a1"/>
    </g>
   </g>
   <g id="line2d_33">
    <g clip-path="url(#pc677602d8b)">
     <use xlink:href="#m08b30d5601" x="41.458274" y="29.483436" style="fill-opacity: 0; stroke: #8656a1"/>
    </g>
   </g>
   <g id="line2d_34">
    <defs>
     <path id="m420399b239" d="M 0 2 
C 0.530406 2 1.03916 1.789267 1.414214 1.414214 
C 1.789267 1.03916 2 0.530406 2 0 
C 2 -0.530406 1.789267 -1.03916 1.414214 -1.414214 
C 1.03916 -1.789267 0.530406 -2 0 -2 
C -0.530406 -2 -1.03916 -1.789267 -1.414214 -1.414214 
C -1.789267 -1.03916 -2 -0.530406 -2 0 
C -2 0.530406 -1.789267 1.03916 -1.414214 1.414214 
C -1.03916 1.789267 -0.530406 2 0 2 
z
" style="stroke: #c08a10"/>
    </defs>
    <g clip-path="url(#pc677602d8b)">
     <use xlink:href="#m420399b239" x="124.864463" y="86.626332" style="fill-opacity: 0; stroke: #c08a10"/>
    </g>
   </g>
   <g id="line2d_35">
    <g clip-path="url(#pc677602d8b)">
     <use xlink:href="#m420399b239" x="41.458274" y="29.483436" style="fill-opacity: 0; stroke: #c08a10"/>
    </g>
   </g>
   <g id="line2d_36">
    <defs>
     <path id="m0aae02df1a" d="M 0 2 
C 0.530406 2 1.03916 1.789267 1.414214 1.414214 
C 1.789267 1.03916 2 0.530406 2 0 
C 2 -0.530406 1.789267 -1.03916 1.414214 -1.414214 
C 1.03916 -1.789267 0.530406 -2 0 -2 
C -0.530406 -2 -1.03916 -1.789267 -1.414214 -1.414214 
C -1.789267 -1.03916 -2 -0.530406 -2 0 
C -2 0.530406 -1.789267 1.03916 -1.414214 1.414214 
C -1.03916 1.789267 -0.530406 2 0 2 
z
" style="stroke: #20a5bc"/>
    </defs>
    <g clip-path="url(#pc677602d8b)">
     <use xlink:href="#m0aae02df1a" x="124.864463" y="86.626332" style="fill-opacity: 0; stroke: #20a5bc"/>
    </g>
   </g>
   <g id="line2d_37">
    <g clip-path="url(#pc677602d8b)">
     <use xlink:href="#m0aae02df1a" x="41.458274" y="29.483436" style="fill-opacity: 0; stroke: #20a5bc"/>
    </g>
   </g>
   <g id="line2d_38">
    <defs>
     <path id="maf4d264736" d="M 0 2 
C 0.530406 2 1.03916 1.789267 1.414214 1.414214 
C 1.789267 1.03916 2 0.530406 2 0 
C 2 -0.530406 1.789267 -1.03916 1.414214 -1.414214 
C 1.03916 -1.789267 0.530406 -2 0 -2 
C -0.530406 -2 -1.03916 -1.789267 -1.414214 -1.414214 
C -1.789267 -1.03916 -2 -0.530406 -2 0 
C -2 0.530406 -1.789267 1.03916 -1.414214 1.414214 
C -1.03916 1.789267 -0.530406 2 0 2 
z
" style="stroke: #1a1ad1"/>
    </defs>
    <g clip-path="url(#pc677602d8b)">
     <use xlink:href="#maf4d264736" x="124.864463" y="86.626332" style="fill-opacity: 0; stroke: #1a1ad1"/>
    </g>
   </g>
   <g id="line2d_39">
    <g clip-path="url(#pc677602d8b)">
     <use xlink:href="#maf4d264736" x="41.458274" y="29.483436" style="fill-opacity: 0; stroke: #1a1ad1"/>
    </g>
   </g>
   <g id="patch_3">
    <path d="M 31.0325 176.31452 
L 31.0325 22.49148 
" style="fill: none; stroke: #000000; stroke-width: 0.8; stroke-linejoin: miter; stroke-linecap: square"/>
   </g>
   <g id="patch_4">
    <path d="M 260.39952 176.31452 
L 260.39952 22.49148 
" style="fill: none; stroke: #000000; stroke-width: 0.8; stroke-linejoin: miter; stroke-linecap: square"/>
   </g>
   <g id="patch_5">
    <path d="M 31.0325 176.31452 
L 260.39952 176.31452 
" style="fill: none; stroke: #000000; stroke-width: 0.8; stroke-linejoin: miter; stroke-linecap: square"/>
   </g>
   <g id="patch_6">
    <path d="M 31.0325 22.49148 
L 260.39952 22.49148 
" style="fill: none; stroke: #000000; stroke-width: 0.8; stroke-linejoin: miter; stroke-linecap: square"/>
   </g>
   <g id="legend_1">
    <g id="patch_7">
     <path d="M 168.936864 38.366168 
L 255.49952 38.366168 
Q 256.89952 38.366168 256.89952 36.966168 
L 256.89952 27.39148 
Q 256.89952 25.99148 255.49952 25.99148 
L 168.936864 25.99148 
Q 167.536864 25.99148 167.536864 27.39148 
L 167.536864 36.966168 
Q 167.536864 38.366168 168.936864 38.366168 
z
" style="fill: #ffffff; opacity: 0.8; stroke: #cccccc; stroke-linejoin: miter"/>
    </g>
    <g id="line2d_40">
     <path d="M 170.336864 31.660386 
L 177.336864 31.660386 
L 184.336864 31.660386 
" style="fill: none; stroke: #000000; stroke-width: 0.8; stroke-linecap: square"/>
    </g>
    <g id="text_14">
     <text style="font: 7px 'DejaVu Sans', 'Bitstream Vera Sans', 'Computer Modern Sans Serif', 'Lucida Grande', 'Verdana', 'Geneva', 'Lucid', 'Arial', 'Helvetica', 'Avant Garde', sans-serif; text-anchor: start" x="189.936864" y="34.110386" transform="rotate(-0 189.936864 34.110386)">Analytic CC model</text>
    </g>
   </g>
  </g>
  <g id="axes_2">
   <g id="patch_8">
    <path d="M 290.2325 176.31452 
L 519.59952 176.31452 
L 519.59952 22.49148 
L 290.2325 22.49148 
z
" style="fill: #ffffff"/>
   </g>
   <g id="matplotlib.axis_3">
    <g id="xtick_7">
     <g id="line2d_41">
      <path d="M 300.658274 176.31452 
L 300.658274 22.49148 
" clip-path="url(#p6721cad778)" style="fill: none; stroke: #b0b0b0; stroke-opacity: 0.2; stroke-width: 0.8; stroke-linecap: square"/>
     </g>
     <g id="line2d_42">
      <g>
       <use xlink:href="#m0d92ce5eca" x="300.658274" y="176.31452" style="stroke: #000000; stroke-width: 0.8"/>
      </g>
     </g>
     <g id="text_15">
      <text style="font: 8px 'DejaVu Sans', 'Bitstream Vera Sans', 'Computer Modern Sans Serif', 'Lucida Grande', 'Verdana', 'Geneva', 'Lucid', 'Arial', 'Helvetica', 'Avant Garde', sans-serif; text-anchor: middle" x="300.658274" y="189.39327" transform="rotate(-0 300.658274 189.39327)">0</text>
     </g>
    </g>
    <g id="xtick_8">
     <g id="line2d_43">
      <path d="M 342.361368 176.31452 
L 342.361368 22.49148 
" clip-path="url(#p6721cad778)" style="fill: none; stroke: #b0b0b0; stroke-opacity: 0.2; stroke-width: 0.8; stroke-linecap: square"/>
     </g>
     <g id="line2d_44">
      <g>
       <use xlink:href="#m0d92ce5eca" x="342.361368" y="176.31452" style="stroke: #000000; stroke-width: 0.8"/>
      </g>
     </g>
     <g id="text_16">
      <text style="font: 8px 'DejaVu Sans', 'Bitstream Vera Sans', 'Computer Modern Sans Serif', 'Lucida Grande', 'Verdana', 'Geneva', 'Lucid', 'Arial', 'Helvetica', 'Avant Garde', sans-serif; text-anchor: middle" x="342.361368" y="189.39327" transform="rotate(-0 342.361368 189.39327)">5</text>
     </g>
    </g>
    <g id="xtick_9">
     <g id="line2d_45">
      <path d="M 384.064463 176.31452 
L 384.064463 22.49148 
" clip-path="url(#p6721cad778)" style="fill: none; stroke: #b0b0b0; stroke-opacity: 0.2; stroke-width: 0.8; stroke-linecap: square"/>
     </g>
     <g id="line2d_46">
      <g>
       <use xlink:href="#m0d92ce5eca" x="384.064463" y="176.31452" style="stroke: #000000; stroke-width: 0.8"/>
      </g>
     </g>
     <g id="text_17">
      <text style="font: 8px 'DejaVu Sans', 'Bitstream Vera Sans', 'Computer Modern Sans Serif', 'Lucida Grande', 'Verdana', 'Geneva', 'Lucid', 'Arial', 'Helvetica', 'Avant Garde', sans-serif; text-anchor: middle" x="384.064463" y="189.39327" transform="rotate(-0 384.064463 189.39327)">10</text>
     </g>
    </g>
    <g id="xtick_10">
     <g id="line2d_47">
      <path d="M 425.767557 176.31452 
L 425.767557 22.49148 
" clip-path="url(#p6721cad778)" style="fill: none; stroke: #b0b0b0; stroke-opacity: 0.2; stroke-width: 0.8; stroke-linecap: square"/>
     </g>
     <g id="line2d_48">
      <g>
       <use xlink:href="#m0d92ce5eca" x="425.767557" y="176.31452" style="stroke: #000000; stroke-width: 0.8"/>
      </g>
     </g>
     <g id="text_18">
      <text style="font: 8px 'DejaVu Sans', 'Bitstream Vera Sans', 'Computer Modern Sans Serif', 'Lucida Grande', 'Verdana', 'Geneva', 'Lucid', 'Arial', 'Helvetica', 'Avant Garde', sans-serif; text-anchor: middle" x="425.767557" y="189.39327" transform="rotate(-0 425.767557 189.39327)">15</text>
     </g>
    </g>
    <g id="xtick_11">
     <g id="line2d_49">
      <path d="M 467.470652 176.31452 
L 467.470652 22.49148 
" clip-path="url(#p6721cad778)" style="fill: none; stroke: #b0b0b0; stroke-opacity: 0.2; stroke-width: 0.8; stroke-linecap: square"/>
     </g>
     <g id="line2d_50">
      <g>
       <use xlink:href="#m0d92ce5eca" x="467.470652" y="176.31452" style="stroke: #000000; stroke-width: 0.8"/>
      </g>
     </g>
     <g id="text_19">
      <text style="font: 8px 'DejaVu Sans', 'Bitstream Vera Sans', 'Computer Modern Sans Serif', 'Lucida Grande', 'Verdana', 'Geneva', 'Lucid', 'Arial', 'Helvetica', 'Avant Garde', sans-serif; text-anchor: middle" x="467.470652" y="189.39327" transform="rotate(-0 467.470652 189.39327)">20</text>
     </g>
    </g>
    <g id="xtick_12">
     <g id="line2d_51">
      <path d="M 509.173746 176.31452 
L 509.173746 22.49148 
" clip-path="url(#p6721cad778)" style="fill: none; stroke: #b0b0b0; stroke-opacity: 0.2; stroke-width: 0.8; stroke-linecap: square"/>
     </g>
     <g id="line2d_52">
      <g>
       <use xlink:href="#m0d92ce5eca" x="509.173746" y="176.31452" style="stroke: #000000; stroke-width: 0.8"/>
      </g>
     </g>
     <g id="text_20">
      <text style="font: 8px 'DejaVu Sans', 'Bitstream Vera Sans', 'Computer Modern Sans Serif', 'Lucida Grande', 'Verdana', 'Geneva', 'Lucid', 'Arial', 'Helvetica', 'Avant Garde', sans-serif; text-anchor: middle" x="509.173746" y="189.39327" transform="rotate(-0 509.173746 189.39327)">25</text>
     </g>
    </g>
    <g id="text_21">
     <text style="font: 8px 'DejaVu Sans', 'Bitstream Vera Sans', 'Computer Modern Sans Serif', 'Lucida Grande', 'Verdana', 'Geneva', 'Lucid', 'Arial', 'Helvetica', 'Avant Garde', sans-serif; text-anchor: middle" x="404.91601" y="201.13577" transform="rotate(-0 404.91601 201.13577)">Battery-voltage sensing bias (V)</text>
    </g>
   </g>
   <g id="matplotlib.axis_4">
    <g id="ytick_6">
     <g id="line2d_53">
      <path d="M 290.2325 169.322564 
L 519.59952 169.322564 
" clip-path="url(#p6721cad778)" style="fill: none; stroke: #b0b0b0; stroke-opacity: 0.2; stroke-width: 0.8; stroke-linecap: square"/>
     </g>
     <g id="line2d_54">
      <g>
       <use xlink:href="#m801810d50b" x="290.2325" y="169.322564" style="stroke: #000000; stroke-width: 0.8"/>
      </g>
     </g>
     <g id="text_22">
      <text style="font: 8px 'DejaVu Sans', 'Bitstream Vera Sans', 'Computer Modern Sans Serif', 'Lucida Grande', 'Verdana', 'Geneva', 'Lucid', 'Arial', 'Helvetica', 'Avant Garde', sans-serif; text-anchor: end" x="283.2325" y="172.361939" transform="rotate(-0 283.2325 172.361939)">0</text>
     </g>
    </g>
    <g id="ytick_7">
     <g id="line2d_55">
      <path d="M 290.2325 149.056023 
L 519.59952 149.056023 
" clip-path="url(#p6721cad778)" style="fill: none; stroke: #b0b0b0; stroke-opacity: 0.2; stroke-width: 0.8; stroke-linecap: square"/>
     </g>
     <g id="line2d_56">
      <g>
       <use xlink:href="#m801810d50b" x="290.2325" y="149.056023" style="stroke: #000000; stroke-width: 0.8"/>
      </g>
     </g>
     <g id="text_23">
      <text style="font: 8px 'DejaVu Sans', 'Bitstream Vera Sans', 'Computer Modern Sans Serif', 'Lucida Grande', 'Verdana', 'Geneva', 'Lucid', 'Arial', 'Helvetica', 'Avant Garde', sans-serif; text-anchor: end" x="283.2325" y="152.095398" transform="rotate(-0 283.2325 152.095398)">1</text>
     </g>
    </g>
    <g id="ytick_8">
     <g id="line2d_57">
      <path d="M 290.2325 128.789483 
L 519.59952 128.789483 
" clip-path="url(#p6721cad778)" style="fill: none; stroke: #b0b0b0; stroke-opacity: 0.2; stroke-width: 0.8; stroke-linecap: square"/>
     </g>
     <g id="line2d_58">
      <g>
       <use xlink:href="#m801810d50b" x="290.2325" y="128.789483" style="stroke: #000000; stroke-width: 0.8"/>
      </g>
     </g>
     <g id="text_24">
      <text style="font: 8px 'DejaVu Sans', 'Bitstream Vera Sans', 'Computer Modern Sans Serif', 'Lucida Grande', 'Verdana', 'Geneva', 'Lucid', 'Arial', 'Helvetica', 'Avant Garde', sans-serif; text-anchor: end" x="283.2325" y="131.828858" transform="rotate(-0 283.2325 131.828858)">2</text>
     </g>
    </g>
    <g id="ytick_9">
     <g id="line2d_59">
      <path d="M 290.2325 108.522943 
L 519.59952 108.522943 
" clip-path="url(#p6721cad778)" style="fill: none; stroke: #b0b0b0; stroke-opacity: 0.2; stroke-width: 0.8; stroke-linecap: square"/>
     </g>
     <g id="line2d_60">
      <g>
       <use xlink:href="#m801810d50b" x="290.2325" y="108.522943" style="stroke: #000000; stroke-width: 0.8"/>
      </g>
     </g>
     <g id="text_25">
      <text style="font: 8px 'DejaVu Sans', 'Bitstream Vera Sans', 'Computer Modern Sans Serif', 'Lucida Grande', 'Verdana', 'Geneva', 'Lucid', 'Arial', 'Helvetica', 'Avant Garde', sans-serif; text-anchor: end" x="283.2325" y="111.562318" transform="rotate(-0 283.2325 111.562318)">3</text>
     </g>
    </g>
    <g id="ytick_10">
     <g id="line2d_61">
      <path d="M 290.2325 88.256403 
L 519.59952 88.256403 
" clip-path="url(#p6721cad778)" style="fill: none; stroke: #b0b0b0; stroke-opacity: 0.2; stroke-width: 0.8; stroke-linecap: square"/>
     </g>
     <g id="line2d_62">
      <g>
       <use xlink:href="#m801810d50b" x="290.2325" y="88.256403" style="stroke: #000000; stroke-width: 0.8"/>
      </g>
     </g>
     <g id="text_26">
      <text style="font: 8px 'DejaVu Sans', 'Bitstream Vera Sans', 'Computer Modern Sans Serif', 'Lucida Grande', 'Verdana', 'Geneva', 'Lucid', 'Arial', 'Helvetica', 'Avant Garde', sans-serif; text-anchor: end" x="283.2325" y="91.295778" transform="rotate(-0 283.2325 91.295778)">4</text>
     </g>
    </g>
    <g id="ytick_11">
     <g id="line2d_63">
      <path d="M 290.2325 67.989863 
L 519.59952 67.989863 
" clip-path="url(#p6721cad778)" style="fill: none; stroke: #b0b0b0; stroke-opacity: 0.2; stroke-width: 0.8; stroke-linecap: square"/>
     </g>
     <g id="line2d_64">
      <g>
       <use xlink:href="#m801810d50b" x="290.2325" y="67.989863" style="stroke: #000000; stroke-width: 0.8"/>
      </g>
     </g>
     <g id="text_27">
      <text style="font: 8px 'DejaVu Sans', 'Bitstream Vera Sans', 'Computer Modern Sans Serif', 'Lucida Grande', 'Verdana', 'Geneva', 'Lucid', 'Arial', 'Helvetica', 'Avant Garde', sans-serif; text-anchor: end" x="283.2325" y="71.029238" transform="rotate(-0 283.2325 71.029238)">5</text>
     </g>
    </g>
    <g id="ytick_12">
     <g id="line2d_65">
      <path d="M 290.2325 47.723323 
L 519.59952 47.723323 
" clip-path="url(#p6721cad778)" style="fill: none; stroke: #b0b0b0; stroke-opacity: 0.2; stroke-width: 0.8; stroke-linecap: square"/>
     </g>
     <g id="line2d_66">
      <g>
       <use xlink:href="#m801810d50b" x="290.2325" y="47.723323" style="stroke: #000000; stroke-width: 0.8"/>
      </g>
     </g>
     <g id="text_28">
      <text style="font: 8px 'DejaVu Sans', 'Bitstream Vera Sans', 'Computer Modern Sans Serif', 'Lucida Grande', 'Verdana', 'Geneva', 'Lucid', 'Arial', 'Helvetica', 'Avant Garde', sans-serif; text-anchor: end" x="283.2325" y="50.762698" transform="rotate(-0 283.2325 50.762698)">6</text>
     </g>
    </g>
    <g id="ytick_13">
     <g id="line2d_67">
      <path d="M 290.2325 27.456782 
L 519.59952 27.456782 
" clip-path="url(#p6721cad778)" style="fill: none; stroke: #b0b0b0; stroke-opacity: 0.2; stroke-width: 0.8; stroke-linecap: square"/>
     </g>
     <g id="line2d_68">
      <g>
       <use xlink:href="#m801810d50b" x="290.2325" y="27.456782" style="stroke: #000000; stroke-width: 0.8"/>
      </g>
     </g>
     <g id="text_29">
      <text style="font: 8px 'DejaVu Sans', 'Bitstream Vera Sans', 'Computer Modern Sans Serif', 'Lucida Grande', 'Verdana', 'Geneva', 'Lucid', 'Arial', 'Helvetica', 'Avant Garde', sans-serif; text-anchor: end" x="283.2325" y="30.496157" transform="rotate(-0 283.2325 30.496157)">7</text>
     </g>
    </g>
    <g id="text_30">
     <text style="font: 8px 'DejaVu Sans', 'Bitstream Vera Sans', 'Computer Modern Sans Serif', 'Lucida Grande', 'Verdana', 'Geneva', 'Lucid', 'Arial', 'Helvetica', 'Avant Garde', sans-serif; text-anchor: middle" x="272.47875" y="99.403" transform="rotate(-90 272.47875 99.403)">Charging power (kW)</text>
    </g>
   </g>
   <g id="line2d_69">
    <path d="M 300.658274 29.483436 
L 341.523115 29.483436 
L 342.570931 29.84495 
L 362.479444 63.955337 
L 382.387956 97.603853 
L 401.248652 129.055347 
L 420.109348 160.092309 
L 425.348431 168.64012 
L 426.396247 169.322564 
L 509.173746 169.322564 
L 509.173746 169.322564 
" clip-path="url(#p6721cad778)" style="fill: none; stroke: #000000; stroke-width: 0.8; stroke-linecap: square"/>
   </g>
   <g id="line2d_70">
    <g clip-path="url(#p6721cad778)">
     <use xlink:href="#mb83f987c79" x="384.064463" y="100.416398" style="fill-opacity: 0; stroke: #737373"/>
    </g>
   </g>
   <g id="line2d_71">
    <g clip-path="url(#p6721cad778)">
     <use xlink:href="#mb83f987c79" x="467.470652" y="169.322564" style="fill-opacity: 0; stroke: #737373"/>
    </g>
   </g>
   <g id="line2d_72">
    <g clip-path="url(#p6721cad778)">
     <use xlink:href="#mc15140a1e7" x="384.064463" y="100.416439" style="fill-opacity: 0; stroke: #00a8d6"/>
    </g>
   </g>
   <g id="line2d_73">
    <g clip-path="url(#p6721cad778)">
     <use xlink:href="#mc15140a1e7" x="467.470652" y="169.322564" style="fill-opacity: 0; stroke: #00a8d6"/>
    </g>
   </g>
   <g id="line2d_74">
    <g clip-path="url(#p6721cad778)">
     <use xlink:href="#m9b78549a1e" x="384.064463" y="100.416453" style="fill-opacity: 0; stroke: #ab9ac0"/>
    </g>
   </g>
   <g id="line2d_75">
    <g clip-path="url(#p6721cad778)">
     <use xlink:href="#m9b78549a1e" x="467.470652" y="169.322564" style="fill-opacity: 0; stroke: #ab9ac0"/>
    </g>
   </g>
   <g id="line2d_76">
    <g clip-path="url(#p6721cad778)">
     <use xlink:href="#m7f317ad738" x="384.064463" y="100.416512" style="fill-opacity: 0; stroke: #70a442"/>
    </g>
   </g>
   <g id="line2d_77">
    <g clip-path="url(#p6721cad778)">
     <use xlink:href="#m7f317ad738" x="467.470652" y="169.322564" style="fill-opacity: 0; stroke: #70a442"/>
    </g>
   </g>
   <g id="line2d_78">
    <g clip-path="url(#p6721cad778)">
     <use xlink:href="#m08b30d5601" x="384.064463" y="100.416458" style="fill-opacity: 0; stroke: #8656a1"/>
    </g>
   </g>
   <g id="line2d_79">
    <g clip-path="url(#p6721cad778)">
     <use xlink:href="#m08b30d5601" x="467.470652" y="169.322564" style="fill-opacity: 0; stroke: #8656a1"/>
    </g>
   </g>
   <g id="line2d_80">
    <g clip-path="url(#p6721cad778)">
     <use xlink:href="#m420399b239" x="384.064463" y="100.416367" style="fill-opacity: 0; stroke: #c08a10"/>
    </g>
   </g>
   <g id="line2d_81">
    <g clip-path="url(#p6721cad778)">
     <use xlink:href="#m420399b239" x="467.470652" y="169.322564" style="fill-opacity: 0; stroke: #c08a10"/>
    </g>
   </g>
   <g id="line2d_82">
    <g clip-path="url(#p6721cad778)">
     <use xlink:href="#m0aae02df1a" x="384.064463" y="100.416602" style="fill-opacity: 0; stroke: #20a5bc"/>
    </g>
   </g>
   <g id="line2d_83">
    <g clip-path="url(#p6721cad778)">
     <use xlink:href="#m0aae02df1a" x="467.470652" y="169.322564" style="fill-opacity: 0; stroke: #20a5bc"/>
    </g>
   </g>
   <g id="line2d_84">
    <g clip-path="url(#p6721cad778)">
     <use xlink:href="#maf4d264736" x="384.064463" y="100.416504" style="fill-opacity: 0; stroke: #1a1ad1"/>
    </g>
   </g>
   <g id="line2d_85">
    <g clip-path="url(#p6721cad778)">
     <use xlink:href="#maf4d264736" x="467.470652" y="169.322564" style="fill-opacity: 0; stroke: #1a1ad1"/>
    </g>
   </g>
   <g id="line2d_86">
    <path d="M 342.361368 176.31452 
L 342.361368 22.49148 
" clip-path="url(#p6721cad778)" style="fill: none; stroke-dasharray: 0.6,0.99; stroke-dashoffset: 0; stroke: #777777; stroke-width: 0.6"/>
   </g>
   <g id="line2d_87">
    <path d="M 425.767557 176.31452 
L 425.767557 22.49148 
" clip-path="url(#p6721cad778)" style="fill: none; stroke-dasharray: 0.6,0.99; stroke-dashoffset: 0; stroke: #777777; stroke-width: 0.6"/>
   </g>
   <g id="patch_9">
    <path d="M 290.2325 176.31452 
L 290.2325 22.49148 
" style="fill: none; stroke: #000000; stroke-width: 0.8; stroke-linejoin: miter; stroke-linecap: square"/>
   </g>
   <g id="patch_10">
    <path d="M 519.59952 176.31452 
L 519.59952 22.49148 
" style="fill: none; stroke: #000000; stroke-width: 0.8; stroke-linejoin: miter; stroke-linecap: square"/>
   </g>
   <g id="patch_11">
    <path d="M 290.2325 176.31452 
L 519.59952 176.31452 
" style="fill: none; stroke: #000000; stroke-width: 0.8; stroke-linejoin: miter; stroke-linecap: square"/>
   </g>
   <g id="patch_12">
    <path d="M 290.2325 22.49148 
L 519.59952 22.49148 
" style="fill: none; stroke: #000000; stroke-width: 0.8; stroke-linejoin: miter; stroke-linecap: square"/>
   </g>
   <g id="text_31">
    <text style="font: 7px 'DejaVu Sans', 'Bitstream Vera Sans', 'Computer Modern Sans Serif', 'Lucida Grande', 'Verdana', 'Geneva', 'Lucid', 'Arial', 'Helvetica', 'Avant Garde', sans-serif" transform="translate(350.18246 82.186162) rotate(-90)">CV entry</text>
   </g>
   <g id="text_32">
    <text style="font: 7px 'DejaVu Sans', 'Bitstream Vera Sans', 'Computer Modern Sans Serif', 'Lucida Grande', 'Verdana', 'Geneva', 'Lucid', 'Arial', 'Helvetica', 'Avant Garde', sans-serif" transform="translate(433.588649 131.365537) rotate(-90)">Zero-current boundary</text>
   </g>
  </g>
  <g id="text_33">
   <text style="font: 9.6px 'DejaVu Sans', 'Bitstream Vera Sans', 'Computer Modern Sans Serif', 'Lucida Grande', 'Verdana', 'Geneva', 'Lucid', 'Arial', 'Helvetica', 'Avant Garde', sans-serif; text-anchor: middle" x="263.39976" y="14.4945" transform="rotate(-0 263.39976 14.4945)">Battery-chain power loss: analytic lines and measured scorecard points</text>
  </g>
 </g>
 <defs>
  <clipPath id="pc677602d8b">
   <rect x="31.0325" y="22.49148" width="229.36702" height="153.82304"/>
  </clipPath>
  <clipPath id="p6721cad778">
   <rect x="290.2325" y="22.49148" width="229.36702" height="153.82304"/>
  </clipPath>
 </defs>
</svg>
